<svg xmlns="http://www.w3.org/2000/svg" xmlns:xlink="http://www.w3.org/1999/xlink" width="1080" zoomAndPan="magnify" viewBox="0 0 810 809.999993" height="1080" preserveAspectRatio="xMidYMid meet" version="1.0"><defs><clipPath id="1dbea4d5ee"><path d="M 271.3125 140.246094 L 300 140.246094 L 300 164 L 271.3125 164 Z M 271.3125 140.246094 " clip-rule="nonzero"/></clipPath><clipPath id="06c7282a9d"><path d="M 498 140.246094 L 527 140.246094 L 527 164 L 498 164 Z M 498 140.246094 " clip-rule="nonzero"/></clipPath><clipPath id="e27b639e9c"><path d="M 167.003906 29 L 631.253906 29 L 631.253906 576 L 167.003906 576 Z M 167.003906 29 " clip-rule="nonzero"/></clipPath><clipPath id="72f6f95741"><path d="M 618 376.640625 L 810 376.640625 L 810 572 L 618 572 Z M 618 376.640625 " clip-rule="nonzero"/></clipPath><clipPath id="1ea2eca664"><path d="M 0 125 L 186 125 L 186 399.253906 L 0 399.253906 Z M 0 125 " clip-rule="nonzero"/></clipPath><clipPath id="052cd9bccd"><path d="M 189 523 L 319 523 L 319 780.863281 L 189 780.863281 Z M 189 523 " clip-rule="nonzero"/></clipPath><clipPath id="2fdc535580"><path d="M 376 566.574219 L 508.691406 566.574219 L 508.691406 781 L 376 781 Z M 376 566.574219 " clip-rule="nonzero"/></clipPath><clipPath id="14b8750f5f"><path d="M 458 566.574219 L 478 566.574219 L 478 689 L 458 689 Z M 458 566.574219 " clip-rule="nonzero"/></clipPath></defs><path fill="#ffffff" d="M 328.046875 174.949219 C 332.34375 184.09375 335.621094 193.828125 338.003906 203.585938 C 338.300781 204.789062 338.066406 206.363281 337.046875 207.203125 C 332.214844 211.214844 327.378906 215.222656 322.539062 219.230469 C 327.214844 222.757812 331.890625 226.28125 336.554688 229.824219 C 340.242188 232.628906 339.085938 235.765625 338.363281 239.835938 C 337.15625 246.632812 335.292969 253.34375 332.734375 259.761719 C 326.242188 276.054688 314.917969 290.394531 298.113281 295.789062 C 305.480469 303.828125 314.515625 308.632812 324.300781 308.632812 C 331.441406 308.632812 338.171875 306.042969 344.160156 301.550781 C 346.292969 292.265625 352.351562 283.917969 360.902344 279.910156 C 365.960938 269.050781 368.957031 255.871094 368.957031 241.648438 C 368.957031 206.609375 350.917969 177.820312 328.046875 174.949219 " fill-opacity="1" fill-rule="nonzero"/><path fill="#ffffff" d="M 485.582031 207.203125 C 480.75 211.214844 475.914062 215.222656 471.078125 219.230469 C 475.75 222.757812 480.429688 226.28125 485.089844 229.824219 C 488.777344 232.628906 487.625 235.765625 486.898438 239.835938 C 485.691406 246.632812 483.828125 253.34375 481.269531 259.761719 C 474.644531 276.394531 462.957031 290.964844 445.566406 296.085938 C 452.886719 303.949219 461.820312 308.632812 471.488281 308.632812 C 496.117188 308.632812 516.144531 278.582031 516.144531 241.648438 C 516.144531 207.351562 498.867188 179.03125 476.683594 175.15625 C 480.929688 184.242188 484.175781 193.902344 486.539062 203.585938 C 486.835938 204.789062 486.601562 206.363281 485.582031 207.203125 " fill-opacity="1" fill-rule="nonzero"/><path fill="#512260" d="M 471.488281 308.632812 C 461.820312 308.632812 452.886719 303.949219 445.566406 296.085938 C 462.957031 290.964844 474.644531 276.394531 481.269531 259.761719 C 483.828125 253.34375 485.691406 246.632812 486.898438 239.835938 C 487.625 235.765625 488.777344 232.628906 485.089844 229.824219 C 480.429688 226.28125 475.75 222.757812 471.078125 219.230469 C 475.914062 215.222656 480.75 211.214844 485.582031 207.203125 C 486.601562 206.363281 486.835938 204.789062 486.539062 203.585938 C 484.175781 193.902344 480.929688 184.242188 476.683594 175.15625 C 498.867188 179.03125 516.144531 207.351562 516.144531 241.648438 C 516.144531 278.582031 496.117188 308.632812 471.488281 308.632812 Z M 471.488281 167.222656 C 442.761719 167.222656 419.390625 200.609375 419.390625 241.648438 C 419.390625 282.6875 442.761719 316.078125 471.488281 316.078125 C 500.21875 316.078125 523.589844 282.6875 523.589844 241.648438 C 523.589844 200.609375 500.21875 167.222656 471.488281 167.222656 " fill-opacity="1" fill-rule="nonzero"/><g clip-path="url(#1dbea4d5ee)"><path fill="#512260" d="M 273.753906 162.664062 C 275.613281 163.648438 277.703125 163.070312 278.84375 161.328125 C 279.125 160.898438 279.417969 160.46875 279.71875 160.046875 C 279.867188 159.835938 280.027344 159.628906 280.179688 159.417969 C 280.203125 159.382812 280.183594 159.40625 280.199219 159.386719 C 280.226562 159.351562 280.21875 159.363281 280.257812 159.3125 C 280.910156 158.503906 281.585938 157.71875 282.296875 156.964844 C 282.972656 156.253906 283.683594 155.566406 284.414062 154.910156 C 284.800781 154.5625 285.191406 154.226562 285.589844 153.898438 C 285.742188 153.773438 285.890625 153.65625 286.039062 153.535156 C 286.097656 153.492188 286.195312 153.417969 286.308594 153.332031 C 287.929688 152.128906 289.652344 151.058594 291.453125 150.132812 C 291.910156 149.898438 292.378906 149.675781 292.847656 149.457031 C 293.039062 149.371094 293.226562 149.285156 293.414062 149.203125 C 293.496094 149.167969 293.472656 149.175781 293.515625 149.15625 C 293.566406 149.140625 293.554688 149.144531 293.671875 149.101562 C 294.644531 148.726562 295.613281 148.378906 296.609375 148.078125 C 298.46875 147.515625 299.835938 145.449219 299.207031 143.5 C 298.597656 141.621094 296.625 140.300781 294.628906 140.902344 C 285.507812 143.667969 277.636719 149.605469 272.417969 157.570312 C 271.347656 159.207031 272.039062 161.757812 273.753906 162.664062 " fill-opacity="1" fill-rule="nonzero"/></g><g clip-path="url(#06c7282a9d)"><path fill="#512260" d="M 525.824219 157.570312 C 520.605469 149.605469 512.734375 143.667969 503.613281 140.902344 C 501.75 140.335938 499.472656 141.578125 499.035156 143.5 C 498.578125 145.511719 499.640625 147.472656 501.636719 148.078125 C 502.628906 148.378906 503.601562 148.730469 504.566406 149.101562 C 504.648438 149.128906 504.644531 149.128906 504.683594 149.140625 C 504.917969 149.246094 505.160156 149.351562 505.394531 149.457031 C 505.863281 149.675781 506.328125 149.898438 506.792969 150.132812 C 508.589844 151.058594 510.3125 152.128906 511.933594 153.332031 C 512.0625 153.425781 512.636719 153.890625 512.042969 153.410156 C 512.207031 153.539062 512.367188 153.664062 512.53125 153.796875 C 512.929688 154.125 513.324219 154.460938 513.710938 154.804688 C 514.488281 155.496094 515.230469 156.214844 515.945312 156.964844 C 516.660156 157.71875 517.332031 158.503906 517.984375 159.3125 C 518.007812 159.34375 518 159.332031 518.015625 159.351562 C 518.15625 159.542969 518.296875 159.730469 518.433594 159.917969 C 518.765625 160.382812 519.085938 160.851562 519.398438 161.328125 C 520.464844 162.953125 522.742188 163.792969 524.492188 162.664062 C 526.113281 161.621094 526.96875 159.3125 525.824219 157.570312 " fill-opacity="1" fill-rule="nonzero"/></g><path fill="#512260" d="M 344.160156 301.550781 C 338.171875 306.042969 331.441406 308.632812 324.300781 308.632812 C 314.515625 308.632812 305.480469 303.828125 298.113281 295.789062 C 314.917969 290.394531 326.242188 276.054688 332.734375 259.761719 C 335.292969 253.34375 337.15625 246.632812 338.363281 239.835938 C 339.085938 235.765625 340.242188 232.628906 336.554688 229.824219 C 331.890625 226.28125 327.214844 222.757812 322.539062 219.230469 C 327.378906 215.222656 332.214844 211.214844 337.046875 207.203125 C 338.066406 206.363281 338.300781 204.789062 338.003906 203.585938 C 335.621094 193.828125 332.34375 184.09375 328.046875 174.949219 C 350.917969 177.820312 368.957031 206.609375 368.957031 241.648438 C 368.957031 255.871094 365.960938 269.050781 360.902344 279.910156 C 352.351562 283.917969 346.292969 292.265625 344.160156 301.550781 Z M 356.046875 321.988281 C 355.890625 321.671875 355.757812 321.351562 355.484375 321.050781 C 348.4375 313.3125 349.933594 301.699219 355.605469 293.628906 C 362.015625 284.511719 374.109375 282.359375 383.921875 287.21875 C 389.34375 289.90625 393.792969 294.339844 394.773438 300.484375 C 394.816406 300.765625 394.988281 300.984375 395.109375 301.226562 C 395.855469 302.707031 397.816406 303.507812 399.351562 303.085938 C 401.464844 302.503906 402.265625 300.5 401.949219 298.507812 C 399.644531 284.050781 383.410156 276.398438 369.917969 277.53125 C 374.039062 266.878906 376.398438 254.65625 376.398438 241.648438 C 376.398438 200.609375 353.027344 167.222656 324.300781 167.222656 C 323.558594 167.222656 322.835938 167.335938 322.101562 167.378906 C 321.890625 167.394531 321.683594 167.378906 321.476562 167.425781 C 294.0625 169.542969 272.203125 201.972656 272.203125 241.648438 C 272.203125 282.6875 295.570312 316.078125 324.300781 316.078125 C 331.054688 316.078125 337.488281 314.171875 343.414062 310.816406 C 343.9375 316.542969 346.257812 321.964844 350.222656 326.316406 C 353.183594 329.566406 357.753906 325.425781 356.046875 321.988281 " fill-opacity="1" fill-rule="nonzero"/><path fill="#512260" d="M 473.0625 361.601562 C 465.226562 365.109375 455.429688 363.9375 448.585938 358.785156 C 441.710938 353.605469 438.335938 344.828125 439.164062 336.386719 C 439.363281 334.382812 437.3125 332.664062 435.445312 332.664062 C 433.265625 332.664062 431.917969 334.378906 431.722656 336.386719 C 430.929688 344.417969 433.476562 352.457031 438.320312 358.78125 C 413.675781 373.914062 382.277344 375.765625 356.34375 362.449219 C 352.089844 360.261719 348.320312 366.683594 352.585938 368.875 C 381.339844 383.636719 416.585938 381.800781 443.683594 364.253906 C 443.980469 364.492188 444.242188 364.761719 444.546875 364.988281 C 453.796875 371.910156 466.441406 372.675781 476.820312 368.027344 C 478.65625 367.210938 479.09375 364.539062 478.15625 362.9375 C 477.050781 361.046875 474.90625 360.777344 473.0625 361.601562 " fill-opacity="1" fill-rule="nonzero"/><path fill="#512260" d="M 454.265625 329.851562 C 449.476562 329.851562 449.46875 337.296875 454.265625 337.296875 C 459.054688 337.296875 459.0625 329.851562 454.265625 329.851562 " fill-opacity="1" fill-rule="nonzero"/><path fill="#512260" d="M 465.90625 350.320312 C 470.695312 350.320312 470.707031 342.878906 465.90625 342.878906 C 461.121094 342.878906 461.113281 350.320312 465.90625 350.320312 " fill-opacity="1" fill-rule="nonzero"/><path fill="#512260" d="M 471.492188 333.574219 C 476.28125 333.574219 476.285156 326.132812 471.492188 326.132812 C 466.703125 326.132812 466.695312 333.574219 471.492188 333.574219 " fill-opacity="1" fill-rule="nonzero"/><g clip-path="url(#e27b639e9c)"><path fill="#8672a5" d="M 631.003906 559.589844 C 630.929688 558.929688 630.839844 557.394531 630.726562 554.980469 C 630.609375 552.480469 630.476562 548.878906 630.335938 544.1875 C 630.179688 538.949219 630.164062 537.582031 630.171875 537.226562 C 630.214844 536.828125 630.21875 536.144531 630.121094 534.148438 C 630.042969 532.5625 629.90625 530.582031 629.714844 528.207031 C 629.527344 525.910156 629.386719 523.335938 629.289062 520.472656 C 629.195312 517.652344 629.320312 510.742188 629.652344 499.945312 C 630.167969 483.3125 630.148438 483.175781 630.105469 482.957031 C 630.089844 482.664062 630.105469 481.886719 630.140625 480.632812 C 630.179688 479.066406 630.292969 476.519531 630.464844 472.992188 C 630.640625 469.398438 630.761719 458.714844 630.839844 440.328125 C 630.910156 422.273438 630.886719 405.421875 630.773438 390.234375 C 630.667969 375.003906 630.636719 363.320312 630.6875 355.496094 C 630.738281 347.570312 630.832031 340.773438 630.964844 335.089844 C 631.101562 329.375 631.109375 323.429688 630.984375 317.421875 C 630.859375 311.429688 630.828125 305.355469 630.894531 299.367188 C 630.957031 293.253906 631 287.207031 631.027344 281.226562 C 631.058594 275.238281 631.058594 269.898438 631.039062 265.203125 C 631.015625 260.519531 630.996094 255.671875 630.988281 250.65625 C 630.976562 245.589844 630.855469 237.117188 630.628906 225.472656 C 630.402344 213.851562 630.3125 203.941406 630.371094 196.015625 C 630.425781 188.078125 630.425781 182.796875 630.378906 180.3125 C 630.328125 177.855469 630.285156 174.628906 630.25 170.628906 C 630.210938 166.628906 630.234375 160.648438 630.332031 152.664062 C 630.421875 144.65625 630.484375 133.339844 630.503906 118.722656 C 630.527344 104.167969 630.351562 86.835938 629.984375 67.210938 C 629.539062 43.867188 629.609375 38.527344 629.695312 37.5 C 629.828125 36.878906 629.722656 36.253906 629.480469 35.691406 C 629.59375 35.394531 629.691406 35.089844 629.703125 34.753906 C 629.765625 33.085938 628.460938 31.679688 626.792969 31.621094 C 624.664062 31.542969 622.933594 31.488281 621.585938 31.453125 C 620.292969 31.417969 619.019531 31.351562 617.765625 31.261719 C 616.421875 31.160156 614.480469 31.082031 611.9375 31.03125 C 609.480469 30.984375 607.199219 30.925781 605.082031 30.863281 C 602.9375 30.796875 599.847656 30.742188 595.816406 30.699219 C 590.320312 30.648438 588.816406 30.703125 588.167969 30.753906 C 587.332031 30.816406 586.308594 30.839844 585.078125 30.8125 C 583.804688 30.792969 582.695312 30.75 581.773438 30.691406 C 580.78125 30.625 579.371094 30.550781 577.539062 30.464844 C 575.714844 30.378906 572.472656 30.289062 567.8125 30.195312 C 563.195312 30.101562 558.953125 30.007812 555.082031 29.90625 C 551.167969 29.804688 547.453125 29.769531 543.898438 29.78125 L 530.96875 29.863281 C 525.90625 29.894531 522.492188 29.898438 520.722656 29.867188 C 518.917969 29.839844 516.824219 29.84375 514.433594 29.882812 C 512.097656 29.914062 509.363281 29.90625 506.203125 29.847656 C 502.980469 29.789062 500.28125 29.777344 498.121094 29.804688 C 495.96875 29.832031 491.578125 29.96875 484.941406 30.21875 C 478.34375 30.472656 472.640625 30.695312 467.832031 30.898438 C 463.042969 31.105469 458.5625 31.273438 454.382812 31.414062 C 450.195312 31.554688 443.96875 31.816406 435.703125 32.199219 C 426.554688 32.621094 423.902344 32.742188 422.90625 32.867188 L 422.902344 32.847656 C 422.558594 32.886719 421.316406 32.964844 419.167969 33.082031 C 416.550781 33.226562 414.445312 33.363281 412.851562 33.480469 C 411.289062 33.597656 409.046875 33.738281 406.121094 33.902344 C 403.179688 34.070312 397.746094 34.347656 389.820312 34.734375 C 381.996094 35.113281 375.503906 35.273438 370.535156 35.175781 C 365.488281 35.082031 359.804688 34.957031 353.480469 34.808594 C 347.128906 34.652344 341.441406 34.574219 336.425781 34.570312 C 331.417969 34.578125 324.78125 34.59375 316.496094 34.660156 C 308.230469 34.726562 300.917969 34.753906 294.546875 34.742188 C 288.148438 34.734375 283.25 34.753906 279.847656 34.816406 C 276.449219 34.878906 271.160156 35.046875 263.976562 35.3125 C 256.804688 35.585938 251.125 35.828125 246.9375 36.050781 C 242.804688 36.269531 240.367188 36.386719 239.609375 36.40625 C 238.855469 36.425781 236.886719 36.4375 233.707031 36.445312 C 230.480469 36.445312 225.464844 36.441406 218.632812 36.417969 C 211.757812 36.390625 206.691406 36.417969 203.429688 36.492188 C 200.179688 36.566406 196.9375 36.652344 193.707031 36.75 C 190.507812 36.855469 188.234375 36.917969 186.886719 36.9375 C 185.582031 36.964844 183.941406 36.9375 181.984375 36.867188 C 179.949219 36.796875 177.945312 36.742188 175.984375 36.703125 C 175.96875 36.703125 175.957031 36.703125 175.941406 36.703125 C 175.933594 35.074219 174.648438 33.734375 173.007812 33.695312 C 171.324219 33.527344 169.953125 34.980469 169.914062 36.652344 C 169.90625 36.957031 169.867188 37.765625 169.800781 38.972656 C 169.683594 39.386719 169.65625 39.8125 169.730469 40.257812 C 169.582031 42.917969 169.34375 46.957031 169.011719 52.433594 C 168.433594 62.007812 167.976562 73.671875 167.664062 87.097656 C 167.347656 100.496094 167.183594 108.597656 167.167969 111.171875 L 167.023438 136.078125 C 166.941406 150.078125 167.15625 166.488281 167.664062 184.859375 C 168.171875 203.289062 168.554688 216.925781 168.820312 225.78125 C 169.082031 234.632812 169.335938 243.757812 169.578125 253.160156 C 169.820312 262.523438 169.996094 268.320312 170.097656 270.378906 C 170.199219 272.402344 170.351562 277.183594 170.558594 284.71875 C 170.765625 292.28125 170.90625 297.90625 170.976562 301.597656 C 171.054688 305.324219 171.152344 308.503906 171.273438 311.125 C 171.386719 313.664062 171.457031 318.054688 171.492188 324.179688 C 171.523438 330.347656 171.542969 334.667969 171.542969 337.144531 C 171.542969 339.585938 171.320312 350.609375 170.875 369.90625 C 170.433594 389.242188 170.152344 407.402344 170.039062 423.890625 C 169.925781 440.398438 169.953125 453.347656 170.117188 462.367188 C 170.285156 471.414062 170.402344 478.34375 170.464844 483.152344 C 170.527344 487.921875 170.535156 491.28125 170.492188 493.238281 C 170.453125 495.226562 170.449219 499.074219 170.480469 504.78125 C 170.519531 510.457031 170.5625 515.152344 170.621094 518.859375 C 170.675781 522.5625 170.742188 528.53125 170.820312 536.769531 C 170.898438 544.980469 170.917969 550.546875 170.875 553.457031 C 170.824219 557.515625 170.890625 558.84375 170.949219 559.480469 C 171.019531 560.34375 171.074219 562.125 171.125 564.535156 L 170.898438 567.261719 C 170.816406 568.230469 171.234375 569.09375 171.898438 569.703125 C 171.613281 570.105469 171.394531 570.554688 171.332031 571.078125 C 171.136719 572.738281 172.320312 574.242188 173.980469 574.4375 C 175.714844 574.636719 179.167969 574.636719 184.542969 574.421875 C 189.722656 574.21875 194.15625 574.035156 197.847656 573.882812 C 201.449219 573.726562 205.492188 573.628906 209.859375 573.59375 C 214.265625 573.558594 219.070312 573.46875 224.273438 573.332031 C 229.363281 573.199219 235.460938 573.1875 242.390625 573.304688 C 249.289062 573.417969 253.792969 573.53125 255.78125 573.644531 C 257.863281 573.761719 261.054688 573.808594 265.238281 573.792969 C 269.386719 573.773438 274.683594 573.789062 281.140625 573.820312 C 287.542969 573.855469 295.433594 574.078125 304.589844 574.488281 C 313.847656 574.90625 321.226562 575.070312 326.515625 575.003906 C 331.769531 574.925781 338.667969 574.800781 347.210938 574.617188 C 355.726562 574.4375 362.277344 574.328125 366.859375 574.289062 L 377.785156 574.214844 C 380.496094 574.199219 383.613281 574.160156 387.144531 574.089844 C 390.652344 574.019531 395.535156 574.015625 401.660156 574.074219 C 407.84375 574.132812 412.496094 574.214844 415.609375 574.316406 C 418.707031 574.417969 421.269531 574.527344 423.292969 574.648438 C 425.433594 574.769531 430.402344 574.808594 438.511719 574.761719 C 446.488281 574.714844 453.742188 574.628906 460.265625 574.515625 C 466.714844 574.402344 471.363281 574.363281 474.0625 574.402344 C 476.75 574.4375 481.484375 574.613281 488.125 574.914062 C 494.851562 575.21875 502.175781 575.304688 509.875 575.167969 C 517.460938 575.027344 525.257812 575.078125 533.054688 575.304688 C 540.90625 575.53125 548.25 575.613281 554.890625 575.550781 C 561.453125 575.484375 566.957031 575.484375 571.253906 575.550781 L 580.972656 575.691406 C 581.613281 575.703125 582.230469 575.703125 582.832031 575.703125 C 584.304688 575.703125 585.667969 575.675781 586.925781 575.621094 C 588.636719 575.546875 591.339844 575.453125 595.039062 575.332031 C 598.746094 575.210938 602.253906 575.121094 605.566406 575.054688 C 608.878906 574.996094 611.738281 574.960938 614.140625 574.949219 L 619.902344 574.921875 C 621.359375 574.921875 623.289062 574.890625 625.691406 574.835938 C 626.179688 574.828125 626.621094 574.671875 627.023438 574.457031 C 627.179688 574.496094 627.308594 574.574219 627.472656 574.585938 C 627.554688 574.59375 627.636719 574.59375 627.71875 574.59375 C 629.277344 574.59375 630.601562 573.398438 630.730469 571.816406 C 630.988281 568.601562 631.125 565.941406 631.128906 563.910156 C 631.136719 561.117188 631.058594 560.105469 631.003906 559.589844 Z M 619.886719 568.875 L 614.101562 568.902344 C 611.679688 568.914062 608.796875 568.949219 605.445312 569.011719 C 602.105469 569.074219 598.574219 569.167969 594.839844 569.289062 C 591.109375 569.410156 588.382812 569.507812 586.65625 569.582031 C 584.996094 569.65625 583.132812 569.679688 581.050781 569.644531 L 571.34375 569.503906 C 566.988281 569.4375 561.425781 569.4375 554.824219 569.503906 C 548.28125 569.566406 541.003906 569.488281 533.226562 569.257812 C 525.332031 569.03125 517.449219 568.980469 509.765625 569.117188 C 502.191406 569.257812 494.996094 569.175781 488.402344 568.875 C 481.597656 568.566406 476.9375 568.394531 474.152344 568.355469 C 471.382812 568.3125 466.679688 568.351562 460.160156 568.472656 C 453.652344 568.585938 446.429688 568.667969 438.476562 568.714844 C 430.621094 568.757812 425.628906 568.726562 423.648438 568.609375 C 421.582031 568.492188 418.96875 568.378906 415.8125 568.273438 C 412.667969 568.171875 407.96875 568.085938 401.71875 568.027344 C 395.535156 567.96875 390.589844 567.972656 387.027344 568.042969 C 383.527344 568.113281 380.433594 568.15625 377.753906 568.167969 L 366.8125 568.242188 C 362.203125 568.28125 355.628906 568.386719 347.078125 568.570312 C 338.554688 568.75 331.671875 568.878906 326.433594 568.953125 C 321.261719 569.03125 313.996094 568.855469 304.863281 568.445312 C 295.625 568.03125 287.652344 567.804688 281.171875 567.773438 C 274.699219 567.738281 269.378906 567.726562 265.214844 567.746094 C 261.136719 567.765625 258.089844 567.71875 256.125 567.605469 C 254.054688 567.488281 249.46875 567.371094 242.492188 567.257812 C 235.476562 567.140625 229.292969 567.148438 224.117188 567.285156 C 218.957031 567.417969 214.183594 567.503906 209.808594 567.546875 C 205.375 567.582031 201.265625 567.683594 197.59375 567.839844 C 193.910156 567.996094 189.480469 568.175781 184.304688 568.378906 C 180.574219 568.527344 178.21875 568.554688 176.710938 568.535156 C 176.800781 568.285156 176.902344 568.039062 176.925781 567.761719 L 177.164062 564.742188 C 177.121094 561.835938 177.0625 559.945312 176.976562 558.960938 C 176.929688 558.414062 176.882812 557.03125 176.929688 553.539062 C 176.964844 550.601562 176.949219 544.996094 176.871094 536.714844 C 176.796875 528.457031 176.730469 522.476562 176.671875 518.769531 C 176.617188 515.074219 176.570312 510.402344 176.53125 504.746094 C 176.5 499.121094 176.503906 495.328125 176.546875 493.367188 C 176.585938 491.375 176.578125 487.945312 176.515625 483.078125 C 176.453125 478.257812 176.339844 471.320312 176.167969 462.253906 C 176.003906 453.289062 175.976562 440.394531 176.089844 423.933594 C 176.203125 407.480469 176.480469 389.351562 176.925781 370.046875 C 177.375 350.429688 177.597656 339.667969 177.597656 337.144531 C 177.59375 334.664062 177.574219 330.332031 177.542969 324.148438 C 177.511719 317.859375 177.4375 313.511719 177.316406 310.851562 C 177.199219 308.269531 177.101562 305.144531 177.027344 301.476562 C 176.953125 297.773438 176.8125 292.132812 176.605469 284.550781 C 176.398438 276.941406 176.242188 272.121094 176.140625 270.082031 C 176.039062 268.0625 175.871094 262.316406 175.628906 253 C 175.382812 243.59375 175.132812 234.460938 174.867188 225.601562 C 174.605469 216.75 174.222656 203.113281 173.710938 184.691406 C 173.207031 166.386719 172.992188 150.042969 173.074219 136.109375 L 173.21875 111.199219 C 173.234375 108.660156 173.398438 100.597656 173.710938 87.234375 C 174.023438 73.878906 174.476562 62.292969 175.050781 52.796875 C 175.324219 48.277344 175.515625 45.066406 175.648438 42.742188 C 175.726562 42.746094 175.789062 42.746094 175.867188 42.746094 C 177.796875 42.78125 179.765625 42.835938 181.769531 42.90625 C 183.328125 42.96875 184.699219 42.996094 185.871094 42.996094 C 186.261719 42.996094 186.640625 42.996094 186.988281 42.988281 C 188.351562 42.964844 190.652344 42.902344 193.894531 42.804688 C 197.109375 42.703125 200.332031 42.617188 203.566406 42.542969 C 206.792969 42.472656 211.808594 42.445312 218.609375 42.46875 C 225.457031 42.492188 230.484375 42.503906 233.71875 42.496094 C 236.972656 42.492188 238.988281 42.476562 239.757812 42.457031 C 240.53125 42.4375 243.027344 42.316406 247.25 42.09375 C 251.414062 41.875 257.066406 41.628906 264.199219 41.359375 C 271.328125 41.089844 276.582031 40.925781 279.957031 40.867188 C 283.328125 40.808594 288.1875 40.785156 294.53125 40.792969 C 300.910156 40.800781 308.246094 40.777344 316.539062 40.710938 C 324.800781 40.644531 331.433594 40.609375 336.417969 40.621094 C 341.390625 40.628906 347.03125 40.707031 353.332031 40.855469 C 359.667969 41.007812 365.363281 41.132812 370.421875 41.226562 C 375.523438 41.308594 382.152344 41.167969 390.109375 40.777344 C 398.058594 40.386719 403.507812 40.109375 406.457031 39.945312 C 409.425781 39.777344 411.707031 39.632812 413.292969 39.515625 C 414.855469 39.398438 416.921875 39.269531 419.496094 39.125 C 422.238281 38.972656 423.28125 38.914062 423.808594 38.835938 C 424.476562 38.789062 427.234375 38.648438 435.972656 38.246094 C 444.207031 37.867188 450.40625 37.609375 454.578125 37.46875 C 458.769531 37.328125 463.269531 37.152344 468.074219 36.949219 C 472.875 36.746094 478.566406 36.519531 485.15625 36.273438 C 491.71875 36.027344 496.0625 35.890625 498.1875 35.863281 C 500.316406 35.832031 502.941406 35.847656 506.082031 35.90625 C 509.3125 35.96875 512.128906 35.976562 514.511719 35.941406 C 516.835938 35.90625 518.867188 35.898438 520.613281 35.925781 C 522.394531 35.957031 525.859375 35.957031 530.996094 35.921875 L 543.921875 35.839844 C 547.417969 35.828125 551.066406 35.863281 554.914062 35.960938 C 558.796875 36.058594 563.046875 36.15625 567.675781 36.25 C 572.265625 36.34375 575.453125 36.429688 577.25 36.511719 C 579.03125 36.59375 580.398438 36.664062 581.371094 36.730469 C 582.378906 36.796875 583.574219 36.839844 584.960938 36.867188 C 586.40625 36.890625 587.617188 36.871094 588.617188 36.792969 C 589.085938 36.753906 590.648438 36.699219 595.746094 36.753906 C 599.726562 36.792969 602.773438 36.84375 604.890625 36.914062 C 607.023438 36.976562 609.328125 37.035156 611.808594 37.085938 C 614.203125 37.132812 616.035156 37.199219 617.308594 37.296875 C 618.660156 37.398438 620.027344 37.464844 621.417969 37.503906 C 622.066406 37.519531 622.816406 37.542969 623.652344 37.570312 C 623.523438 40.183594 623.550781 47.085938 623.933594 67.328125 C 624.300781 86.914062 624.480469 104.203125 624.453125 118.71875 C 624.429688 133.308594 624.371094 144.601562 624.28125 152.597656 C 624.183594 160.632812 624.160156 166.664062 624.195312 170.6875 C 624.234375 174.714844 624.277344 177.964844 624.328125 180.441406 C 624.378906 182.867188 624.375 188.09375 624.316406 195.980469 C 624.261719 203.957031 624.351562 213.917969 624.578125 225.59375 C 624.804688 237.203125 624.925781 245.640625 624.9375 250.671875 C 624.945312 255.691406 624.964844 260.546875 624.984375 265.238281 C 625.007812 269.914062 625.007812 275.238281 624.976562 281.203125 C 624.949219 287.171875 624.90625 293.210938 624.84375 299.308594 C 624.777344 305.359375 624.808594 311.496094 624.933594 317.550781 C 625.054688 323.472656 625.050781 329.328125 624.914062 334.957031 C 624.78125 340.667969 624.6875 347.503906 624.636719 355.464844 C 624.585938 363.3125 624.617188 375.027344 624.722656 390.289062 C 624.835938 405.449219 624.859375 422.28125 624.785156 440.3125 C 624.714844 458.351562 624.585938 469.25 624.421875 472.703125 C 624.246094 476.289062 624.140625 478.878906 624.089844 480.472656 C 624.039062 482.40625 624.046875 483.0625 624.070312 483.402344 C 624.070312 484.257812 623.914062 489.761719 623.605469 499.769531 C 623.265625 510.847656 623.144531 517.6875 623.246094 520.679688 C 623.34375 523.648438 623.488281 526.320312 623.679688 528.703125 C 623.867188 531 624.003906 532.917969 624.074219 534.453125 C 624.128906 535.519531 624.15625 536.222656 624.148438 536.5625 C 624.09375 537.042969 624.097656 538.222656 624.28125 544.375 C 624.425781 549.113281 624.558594 552.742188 624.679688 555.273438 C 624.800781 557.886719 624.90625 559.554688 624.984375 560.265625 C 625.019531 560.589844 625.082031 561.488281 625.074219 563.90625 C 625.070312 565.230469 625.003906 566.886719 624.878906 568.8125 C 622.855469 568.851562 621.171875 568.875 619.886719 568.875 Z M 619.886719 568.875 " fill-opacity="1" fill-rule="nonzero"/></g><path fill="#8672a5" d="M 600.046875 65.105469 C 600.042969 65.105469 600.039062 65.105469 600.035156 65.105469 C 598.871094 65.105469 597.890625 65.785156 597.382812 66.75 C 596.898438 65.769531 595.925781 65.070312 594.757812 65.050781 L 593.675781 65.035156 C 588.058594 64.738281 584.332031 64.566406 582.484375 64.515625 C 580.710938 64.464844 579.28125 64.398438 578.203125 64.316406 C 577.019531 64.226562 575.441406 64.179688 573.511719 64.199219 C 572.035156 64.210938 570.523438 64.214844 568.972656 64.214844 C 566.6875 64.214844 564.386719 64.1875 562.171875 64.097656 C 560.277344 64.027344 558.320312 63.964844 556.316406 63.914062 C 554.292969 63.863281 551.363281 63.859375 547.503906 63.902344 L 534.644531 64.027344 C 529.871094 64.074219 525.15625 64.140625 520.488281 64.238281 C 515.847656 64.335938 512.238281 64.398438 509.65625 64.421875 C 507.046875 64.449219 503.351562 64.558594 498.558594 64.757812 C 493.78125 64.957031 490.222656 65.128906 487.890625 65.28125 C 485.625 65.429688 481.425781 65.535156 475.402344 65.601562 C 469.320312 65.664062 464.765625 65.683594 461.707031 65.636719 C 458.609375 65.597656 456.027344 65.621094 454.078125 65.71875 C 452.183594 65.808594 450.1875 65.890625 448.085938 65.960938 C 445.972656 66.03125 443.285156 66.113281 440.023438 66.207031 C 436.769531 66.300781 432.945312 66.363281 428.546875 66.390625 C 424.136719 66.421875 420.460938 66.421875 417.511719 66.414062 L 408.773438 66.386719 C 405.917969 66.378906 403.164062 66.359375 400.503906 66.328125 C 397.855469 66.292969 395.222656 66.230469 392.601562 66.136719 C 389.933594 66.042969 386.296875 66.011719 381.796875 66.054688 C 377.300781 66.09375 374.210938 66.140625 372.53125 66.1875 C 370.863281 66.234375 368.410156 66.292969 365.179688 66.359375 C 361.90625 66.421875 359.570312 66.480469 358.179688 66.535156 C 356.800781 66.585938 354.859375 66.648438 352.359375 66.730469 C 349.820312 66.8125 347.789062 66.890625 346.265625 66.976562 C 344.773438 67.054688 342.808594 67.136719 340.367188 67.214844 C 337.960938 67.296875 333.984375 67.328125 328.542969 67.308594 C 323.042969 67.292969 317.164062 67.316406 310.902344 67.378906 C 304.699219 67.445312 301.136719 67.46875 300.226562 67.457031 C 299.289062 67.449219 298.082031 67.453125 296.605469 67.46875 C 295.175781 67.488281 293.011719 67.484375 290.113281 67.464844 C 287.195312 67.445312 283.820312 67.40625 280 67.34375 C 276.15625 67.285156 272.578125 67.246094 269.265625 67.222656 C 265.929688 67.199219 263.789062 67.1875 262.851562 67.203125 C 261.917969 67.210938 260.21875 67.199219 257.742188 67.167969 C 255.246094 67.136719 252.660156 67.082031 249.992188 67.003906 C 247.273438 66.917969 242.820312 66.894531 236.394531 66.914062 C 230.074219 66.9375 223.132812 67.003906 215.570312 67.113281 C 206.902344 67.238281 204.773438 67.152344 204.253906 67.101562 C 203.835938 67.003906 203.425781 67.023438 203.023438 67.097656 C 202.480469 66.683594 201.8125 66.414062 201.085938 66.4375 C 199.414062 66.507812 198.121094 67.917969 198.191406 69.585938 L 198.277344 71.394531 C 198.121094 75.996094 198.03125 78.664062 198.019531 79.40625 C 198.003906 80.160156 198.007812 81.503906 198.039062 83.183594 C 197.964844 84.25 197.875 85.945312 197.773438 88.265625 C 197.671875 90.582031 197.605469 93.132812 197.578125 95.914062 C 197.550781 98.648438 197.523438 100.902344 197.5 102.667969 C 197.472656 104.507812 197.484375 106.101562 197.546875 107.449219 C 197.605469 108.777344 197.671875 109.960938 197.742188 111 C 197.8125 111.964844 197.855469 112.960938 197.875 113.992188 C 197.898438 115.0625 197.90625 116.601562 197.910156 118.613281 C 197.910156 120.65625 197.949219 123.828125 198.023438 128.136719 C 198.097656 132.410156 198.152344 135.878906 198.1875 138.539062 C 198.222656 141.207031 198.296875 145.140625 198.410156 150.355469 C 198.519531 155.546875 198.640625 162.039062 198.769531 169.820312 C 198.898438 177.625 198.988281 182.351562 199.035156 183.996094 C 199.078125 185.636719 199.167969 188.496094 199.296875 192.574219 C 199.433594 196.597656 199.496094 199.703125 199.496094 201.894531 C 199.488281 204.128906 199.550781 207.800781 199.675781 212.898438 C 199.800781 217.96875 200.007812 225.738281 200.296875 236.210938 C 200.585938 246.566406 200.738281 255.382812 200.753906 262.414062 C 200.761719 269.464844 200.710938 279.527344 200.597656 292.605469 L 200.371094 319.910156 C 200.332031 324.925781 200.277344 328.300781 200.199219 329.933594 C 200.121094 331.609375 200.042969 333.882812 199.972656 336.765625 C 199.898438 339.636719 199.859375 344.195312 199.847656 350.445312 C 199.839844 356.695312 200.0625 365.269531 200.511719 375.925781 C 200.960938 386.515625 201.1875 393.386719 201.183594 396.351562 C 201.183594 399.355469 201.160156 402.636719 201.113281 406.203125 C 201.066406 409.820312 201.136719 414.632812 201.3125 420.503906 C 201.488281 426.214844 201.453125 430.507812 201.214844 433.257812 C 200.957031 436.203125 200.832031 438.535156 200.859375 440.449219 L 200.957031 441.46875 C 200.980469 441.71875 201.039062 441.96875 201.121094 442.210938 L 201.261719 442.59375 C 201.703125 443.824219 202.867188 444.589844 204.105469 444.589844 C 204.425781 444.589844 204.753906 444.527344 205.070312 444.417969 C 205.214844 445.40625 205.789062 446.316406 206.769531 446.757812 C 207.5 447.089844 208.082031 447.351562 218.242188 447.527344 C 223.378906 447.613281 227.457031 447.65625 230.480469 447.65625 C 231.21875 447.65625 231.894531 447.65625 232.507812 447.648438 L 241.578125 447.585938 C 244.238281 447.570312 245.71875 447.566406 245.757812 447.550781 C 246.101562 447.597656 246.148438 447.605469 259.296875 447.351562 C 267.898438 447.1875 275.96875 447.054688 283.511719 446.960938 C 291.050781 446.863281 296.984375 446.796875 301.3125 446.765625 C 305.640625 446.734375 310.019531 446.707031 314.449219 446.683594 C 318.894531 446.660156 323.011719 446.613281 326.800781 446.542969 C 330.570312 446.472656 336.746094 446.421875 345.339844 446.394531 L 384.730469 446.273438 C 390.875 446.25 395.53125 446.207031 398.699219 446.136719 C 401.925781 446.066406 404.253906 445.976562 405.667969 445.871094 C 406.980469 445.773438 411.273438 445.585938 418.425781 445.320312 C 425.5625 445.050781 432.234375 444.894531 438.261719 444.847656 C 444.339844 444.800781 448.792969 444.769531 451.625 444.757812 L 459.644531 444.730469 C 462.171875 444.722656 466.453125 444.660156 472.5 444.550781 L 489.332031 444.21875 C 494.503906 444.113281 498.605469 444.0625 501.5625 444.078125 C 504.605469 444.066406 507.140625 444.050781 509.140625 443.976562 C 511.113281 443.90625 513.449219 443.828125 516.15625 443.75 C 518.875 443.671875 521.226562 443.59375 523.214844 443.53125 C 525.199219 443.460938 527.558594 443.382812 530.304688 443.300781 C 533.070312 443.21875 535.5625 443.125 537.773438 443.023438 C 539.980469 442.921875 543.019531 442.761719 546.902344 442.546875 C 550.730469 442.332031 553.710938 442.203125 555.863281 442.167969 C 558.109375 442.125 559.558594 442.085938 560.210938 442.046875 C 560.519531 442.023438 561.683594 441.992188 566.132812 442.007812 C 569.601562 442.015625 572.433594 442.011719 574.617188 441.988281 C 576.820312 441.96875 578.535156 441.9375 579.773438 441.902344 C 581.035156 441.867188 582.199219 441.808594 583.25 441.730469 C 584.246094 441.65625 585.539062 441.582031 587.121094 441.511719 C 588.71875 441.433594 590.535156 441.375 592.78125 441.308594 C 593.785156 441.207031 594.710938 441.128906 595.75 441.058594 L 599.46875 440.570312 C 601.125 440.355469 602.292969 438.835938 602.078125 437.179688 C 601.984375 436.480469 601.628906 435.90625 601.160156 435.449219 C 601.339844 435.089844 601.460938 434.699219 601.484375 434.277344 L 601.546875 432.984375 C 601.433594 429.5 601.367188 427.214844 601.34375 426.128906 L 601.226562 421.414062 C 601.171875 419.394531 601.140625 417.007812 601.140625 414.257812 C 601.140625 411.464844 601.125 406.417969 601.105469 399.109375 C 601.082031 391.820312 601.082031 386.171875 601.109375 382.15625 C 601.136719 378.136719 601.171875 370.804688 601.21875 360.167969 C 601.261719 349.296875 601.25 341.171875 601.175781 335.332031 C 601.105469 329.457031 601.054688 324.921875 601.03125 321.730469 C 601.011719 318.558594 601.035156 314.960938 601.113281 310.941406 C 601.1875 306.910156 601.273438 303.679688 601.371094 301.25 C 601.464844 298.792969 601.546875 296.179688 601.613281 293.414062 C 601.679688 290.652344 601.71875 288.417969 601.742188 286.703125 C 601.765625 285 601.824219 281.285156 601.917969 275.558594 C 602.015625 269.832031 602.109375 264.773438 602.203125 260.398438 L 602.503906 246.863281 C 602.609375 242.195312 602.65625 237.988281 602.644531 234.238281 C 602.632812 230.523438 602.632812 227.574219 602.644531 225.410156 C 602.65625 223.203125 602.644531 221.214844 602.609375 219.441406 C 602.574219 217.703125 602.546875 213.046875 602.527344 205.464844 C 602.507812 197.863281 602.511719 191.886719 602.546875 187.539062 C 602.574219 183.171875 602.582031 177.8125 602.566406 171.453125 C 602.554688 165.140625 602.578125 160.519531 602.636719 157.59375 C 602.703125 154.625 602.703125 150.746094 602.652344 145.953125 C 602.597656 141.207031 602.617188 135.371094 602.714844 128.605469 C 602.808594 121.855469 602.832031 114.261719 602.785156 106.046875 C 602.738281 97.949219 602.730469 92.898438 602.769531 90.890625 C 602.804688 88.929688 602.839844 87.582031 602.878906 86.851562 C 602.921875 86.066406 602.929688 84.527344 602.894531 82.246094 C 602.859375 80.101562 602.851562 78.417969 602.871094 77.191406 C 602.886719 75.972656 602.945312 74.476562 603.058594 72.53125 L 603.070312 68.152344 C 603.066406 66.472656 601.71875 65.113281 600.046875 65.105469 Z M 592.402344 435.273438 C 590.324219 435.328125 588.46875 435.390625 586.839844 435.46875 C 585.191406 435.542969 583.851562 435.617188 582.804688 435.695312 C 581.828125 435.769531 580.753906 435.820312 579.59375 435.855469 C 578.390625 435.886719 576.71875 435.914062 574.558594 435.9375 C 572.394531 435.957031 569.59375 435.957031 566.140625 435.957031 C 561.402344 435.945312 560.265625 435.980469 559.828125 436.007812 C 559.222656 436.042969 557.867188 436.078125 555.753906 436.113281 C 553.550781 436.15625 550.484375 436.285156 546.5625 436.503906 C 542.707031 436.71875 539.679688 436.875 537.492188 436.976562 C 535.308594 437.078125 532.847656 437.167969 530.117188 437.25 C 527.355469 437.332031 524.984375 437.410156 523.003906 437.476562 C 521.023438 437.546875 518.683594 437.621094 515.972656 437.699219 C 513.25 437.78125 510.898438 437.855469 508.914062 437.925781 C 506.96875 438 504.5 438.023438 501.578125 438.023438 C 498.550781 438.003906 494.433594 438.0625 489.207031 438.167969 L 472.382812 438.496094 C 466.382812 438.609375 462.125 438.671875 459.625 438.679688 L 451.601562 438.707031 C 448.765625 438.714844 444.300781 438.746094 438.210938 438.792969 C 432.125 438.839844 425.394531 439 418.199219 439.269531 C 410.871094 439.546875 406.621094 439.730469 405.214844 439.835938 C 403.863281 439.9375 401.644531 440.019531 398.5625 440.085938 C 395.421875 440.15625 390.800781 440.199219 384.707031 440.21875 L 345.316406 440.339844 C 336.683594 440.371094 330.472656 440.417969 326.6875 440.488281 C 322.921875 440.5625 318.828125 440.605469 314.414062 440.632812 C 309.980469 440.652344 305.597656 440.679688 301.265625 440.710938 C 296.929688 440.742188 290.984375 440.804688 283.429688 440.90625 C 275.878906 441.003906 267.792969 441.132812 259.179688 441.300781 C 251.046875 441.457031 246.734375 441.535156 246.476562 441.542969 C 246.25 441.519531 246.136719 441.507812 241.542969 441.53125 L 232.453125 441.597656 C 229.367188 441.625 224.664062 441.582031 218.339844 441.472656 C 211.152344 441.347656 209.34375 441.171875 208.902344 441.109375 C 208.277344 440.910156 207.632812 440.964844 207.042969 441.164062 C 207.015625 440.953125 207.027344 440.742188 206.949219 440.53125 L 206.890625 440.132812 C 206.878906 438.671875 206.996094 436.535156 207.238281 433.777344 C 207.5 430.75 207.542969 426.347656 207.359375 420.316406 C 207.183594 414.53125 207.117188 409.808594 207.160156 406.28125 C 207.210938 402.6875 207.230469 399.375 207.230469 396.351562 C 207.234375 393.261719 207.011719 386.496094 206.554688 375.664062 C 206.109375 365.09375 205.890625 356.613281 205.894531 350.449219 C 205.90625 344.265625 205.945312 339.757812 206.015625 336.917969 C 206.085938 334.085938 206.160156 331.851562 206.238281 330.210938 C 206.316406 328.5 206.378906 325.046875 206.414062 319.945312 L 206.640625 292.652344 C 206.753906 279.546875 206.804688 269.464844 206.796875 262.394531 C 206.785156 255.308594 206.628906 246.441406 206.339844 236.035156 C 206.046875 225.570312 205.839844 217.808594 205.71875 212.742188 C 205.59375 207.714844 205.535156 204.101562 205.539062 201.894531 C 205.539062 199.652344 205.476562 196.476562 205.339844 192.367188 C 205.207031 188.308594 205.117188 185.460938 205.074219 183.824219 C 205.03125 182.1875 204.945312 177.480469 204.8125 169.710938 C 204.683594 161.917969 204.5625 155.421875 204.453125 150.21875 C 204.339844 145.03125 204.269531 141.105469 204.234375 138.453125 C 204.195312 135.785156 204.140625 132.3125 204.066406 128.027344 C 203.992188 123.765625 203.957031 120.625 203.953125 118.605469 C 203.949219 116.542969 203.941406 114.964844 203.917969 113.867188 C 203.894531 112.726562 203.84375 111.628906 203.769531 110.574219 C 203.699219 109.582031 203.636719 108.457031 203.582031 107.183594 C 203.527344 105.933594 203.511719 104.460938 203.539062 102.757812 C 203.566406 100.984375 203.59375 98.71875 203.621094 95.96875 C 203.648438 93.261719 203.707031 90.78125 203.808594 88.527344 C 203.90625 86.277344 203.992188 84.636719 204.070312 83.355469 C 204.050781 81.507812 204.042969 80.230469 204.054688 79.515625 C 204.070312 78.882812 204.132812 76.808594 204.253906 73.15625 C 205.769531 73.234375 208.835938 73.253906 215.648438 73.15625 C 223.1875 73.042969 230.105469 72.976562 236.40625 72.957031 C 242.679688 72.933594 247.191406 72.964844 249.808594 73.042969 C 252.515625 73.121094 255.128906 73.175781 257.664062 73.210938 C 260.207031 73.242188 261.957031 73.25 262.90625 73.242188 C 263.839844 73.230469 265.941406 73.242188 269.21875 73.261719 C 272.519531 73.285156 276.078125 73.324219 279.902344 73.386719 C 283.746094 73.445312 287.136719 73.488281 290.070312 73.507812 C 291.621094 73.519531 292.96875 73.523438 294.105469 73.523438 C 295.132812 73.523438 295.988281 73.519531 296.675781 73.511719 C 298.089844 73.496094 299.246094 73.488281 300.152344 73.5 C 301.070312 73.507812 304.675781 73.484375 310.957031 73.417969 C 317.191406 73.359375 323.050781 73.335938 328.519531 73.347656 C 334.125 73.367188 338.054688 73.335938 340.5625 73.253906 C 343.054688 73.171875 345.066406 73.089844 346.589844 73.007812 C 348.082031 72.929688 350.066406 72.847656 352.546875 72.773438 C 355.0625 72.691406 357.015625 72.628906 358.410156 72.574219 C 359.78125 72.523438 362.078125 72.460938 365.300781 72.402344 C 368.554688 72.332031 371.019531 72.273438 372.703125 72.230469 C 374.367188 72.183594 377.414062 72.140625 381.851562 72.097656 C 386.265625 72.0625 389.808594 72.089844 392.386719 72.179688 C 395.054688 72.273438 397.734375 72.339844 400.429688 72.371094 C 403.109375 72.402344 405.886719 72.425781 408.761719 72.429688 L 417.484375 72.460938 C 420.449219 72.46875 424.152344 72.464844 428.585938 72.433594 C 433.035156 72.40625 436.902344 72.34375 440.195312 72.246094 C 443.472656 72.152344 446.167969 72.070312 448.285156 72 C 450.417969 71.929688 452.445312 71.847656 454.367188 71.757812 C 456.195312 71.667969 458.644531 71.644531 461.628906 71.683594 C 464.710938 71.726562 469.324219 71.707031 475.46875 71.648438 C 481.601562 71.582031 485.910156 71.46875 488.28125 71.316406 C 490.585938 71.164062 494.09375 70.992188 498.808594 70.796875 C 503.519531 70.601562 507.15625 70.492188 509.722656 70.464844 C 512.316406 70.4375 515.949219 70.378906 520.617188 70.28125 C 525.253906 70.1875 529.949219 70.117188 534.703125 70.074219 L 547.566406 69.945312 C 551.332031 69.902344 554.199219 69.910156 556.167969 69.957031 C 558.148438 70.007812 560.074219 70.070312 561.945312 70.140625 C 563.867188 70.214844 565.828125 70.257812 567.832031 70.257812 C 569.828125 70.261719 571.71875 70.257812 573.558594 70.242188 C 575.292969 70.230469 576.683594 70.261719 577.746094 70.34375 C 578.902344 70.433594 580.425781 70.503906 582.316406 70.554688 C 584.140625 70.609375 587.820312 70.777344 593.46875 71.074219 L 594.65625 71.09375 C 595.609375 71.125 596.445312 70.65625 597.011719 69.953125 L 597.007812 72.332031 C 596.898438 74.214844 596.835938 75.800781 596.816406 77.089844 C 596.800781 78.363281 596.804688 80.109375 596.839844 82.328125 C 596.875 84.398438 596.875 85.792969 596.835938 86.507812 C 596.792969 87.277344 596.75 88.699219 596.714844 90.765625 C 596.679688 92.789062 596.683594 97.890625 596.730469 106.070312 C 596.777344 114.246094 596.753906 121.796875 596.664062 128.507812 C 596.566406 135.324219 596.542969 141.210938 596.597656 146.011719 C 596.648438 150.726562 596.648438 154.539062 596.585938 157.457031 C 596.523438 160.414062 596.5 165.078125 596.515625 171.457031 C 596.53125 177.792969 596.519531 183.136719 596.492188 187.484375 C 596.457031 191.847656 596.453125 197.84375 596.472656 205.46875 C 596.492188 213.113281 596.519531 217.808594 596.558594 219.550781 C 596.589844 221.273438 596.601562 223.214844 596.589844 225.371094 C 596.578125 227.550781 596.578125 230.511719 596.59375 234.246094 C 596.601562 237.953125 596.554688 242.109375 596.453125 246.71875 L 596.148438 260.261719 C 596.058594 264.648438 595.960938 269.710938 595.863281 275.453125 C 595.769531 281.191406 595.710938 284.914062 595.691406 286.617188 C 595.667969 288.3125 595.625 290.527344 595.558594 293.265625 C 595.492188 295.996094 595.417969 298.578125 595.320312 301.007812 C 595.230469 303.46875 595.136719 306.738281 595.058594 310.816406 C 594.984375 314.898438 594.957031 318.546875 594.980469 321.765625 C 595.003906 324.960938 595.050781 329.507812 595.121094 335.398438 C 595.195312 341.203125 595.207031 349.296875 595.164062 360.132812 C 595.117188 370.765625 595.082031 378.09375 595.054688 382.109375 C 595.027344 386.136719 595.023438 391.804688 595.050781 399.121094 C 595.074219 406.417969 595.085938 411.460938 595.085938 414.25 C 595.085938 417.070312 595.117188 419.507812 595.171875 421.570312 L 595.292969 426.242188 C 595.3125 427.335938 595.378906 429.648438 595.5 432.898438 L 595.441406 433.917969 C 595.421875 434.289062 595.492188 434.636719 595.59375 434.972656 L 595.160156 435.03125 C 594.257812 435.097656 593.265625 435.175781 592.402344 435.273438 Z M 592.402344 435.273438 " fill-opacity="1" fill-rule="nonzero"/><g clip-path="url(#72f6f95741)"><path fill="#000000" d="M 809.085938 534.226562 C 808.015625 543.351562 801.207031 550.441406 792.136719 551.765625 C 790.007812 556.621094 786.621094 560.515625 781.550781 562.851562 C 776.546875 565.15625 771.585938 565.078125 766.394531 562.773438 C 761.746094 566.992188 756.617188 570.511719 750.152344 571.355469 C 743.472656 572.230469 738.359375 569.011719 733.917969 564.8125 C 730.601562 565.8125 727.609375 567.03125 724.5 567.597656 C 715.808594 569.1875 709.1875 565.675781 705.96875 557.496094 C 704.851562 554.652344 703.359375 553.207031 700.515625 552.21875 C 689.792969 548.472656 685.195312 539.742188 688.566406 528.921875 C 690.332031 523.28125 692.960938 517.867188 695.601562 512.539062 C 698.308594 507.074219 701.507812 501.867188 704.566406 496.414062 C 703.683594 495.726562 702.929688 495.148438 702.183594 494.558594 C 696.210938 489.8125 694.789062 483.867188 698.289062 477.011719 C 701.839844 470.074219 707.804688 465.816406 714.828125 462.875 C 715.847656 462.441406 716.925781 462.160156 718.398438 461.660156 C 718.035156 459.324219 717.769531 456.96875 717.28125 454.664062 C 715.398438 445.6875 713.542969 436.714844 711.484375 427.785156 C 709.882812 420.832031 705.605469 416.566406 698.347656 415.417969 C 685.007812 413.308594 671.695312 410.945312 658.34375 408.921875 C 648.644531 407.453125 638.875 406.375 629.144531 405.070312 C 627.554688 404.851562 625.9375 404.558594 624.453125 403.980469 C 621.089844 402.664062 618.894531 400.410156 618.5 396.542969 C 617.488281 386.183594 624.089844 377.945312 634.851562 377.152344 C 641.414062 376.671875 648.085938 376.769531 654.648438 377.277344 C 674.765625 378.847656 694.53125 382.398438 713.75 388.695312 C 717.417969 389.894531 721.007812 391.335938 724.589844 392.757812 C 736.09375 397.328125 743.265625 405.84375 746.070312 417.722656 C 748.699219 428.835938 750.671875 440.097656 752.925781 451.289062 C 753.144531 452.367188 753.386719 453.4375 753.761719 455.195312 C 756.929688 455.195312 759.667969 455.046875 762.382812 455.222656 C 768.554688 455.617188 773.890625 458.167969 778.488281 462.179688 C 783.90625 466.898438 785.808594 472.996094 784.769531 479.992188 C 796.148438 490.125 803.542969 502.523438 807.546875 517.003906 C 809.113281 522.664062 809.773438 528.390625 809.085938 534.226562 Z M 809.085938 534.226562 " fill-opacity="1" fill-rule="nonzero"/></g><path fill="#ffffff" d="M 707.707031 498.148438 C 712.628906 499.011719 717.113281 500.023438 721.417969 498.179688 C 721.457031 497.765625 721.507812 497.363281 721.546875 496.953125 C 720.429688 496.628906 719.289062 496.324219 718.183594 495.960938 C 714.375 494.726562 710.355469 493.910156 706.824219 492.117188 C 700.300781 488.808594 699.09375 483.914062 702.9375 477.6875 C 706.636719 471.691406 712.246094 468.152344 719.339844 465.550781 C 720.027344 468.457031 720.761719 470.871094 721.144531 473.339844 C 721.664062 476.765625 723.675781 478.765625 726.714844 480.019531 C 734.800781 483.347656 742.46875 482.609375 749.660156 477.648438 C 753.191406 475.214844 755.230469 471.9375 754.78125 467.417969 C 754.527344 464.855469 754.488281 462.277344 754.359375 459.707031 C 762.636719 457.175781 775.097656 462.160156 778.910156 469.691406 C 781.382812 474.558594 781.296875 479.375 777.527344 483.640625 C 775.722656 485.691406 773.625 487.476562 771.683594 489.398438 C 770.9375 490.136719 770.25 490.917969 769.417969 491.800781 C 773.753906 493.066406 776.625 491.488281 782.894531 484.574219 C 784.160156 485.769531 785.511719 486.878906 786.660156 488.164062 C 796.5 499.101562 802.925781 511.695312 804.847656 526.390625 C 805.847656 534.0625 804.179688 540.847656 797.589844 545.683594 C 796.429688 546.527344 795.097656 547.667969 793.8125 547.707031 C 789.9375 547.824219 788.367188 550.355469 786.660156 553.207031 C 782.835938 559.574219 774.695312 562.695312 768.257812 559.59375 C 766.21875 558.613281 764.550781 558.976562 762.875 560.203125 C 760.921875 561.625 759.027344 563.144531 756.988281 564.429688 C 749.789062 568.941406 743.746094 568.777344 737.566406 563.078125 C 734.613281 560.351562 732.308594 560.132812 729.148438 562.105469 C 727.824219 562.929688 726.1875 563.382812 724.636719 563.714844 C 716.984375 565.371094 711.503906 562.664062 708.953125 555.347656 C 707.980469 552.570312 706.382812 551.257812 704.046875 549.972656 C 701.527344 548.589844 699.183594 546.84375 696.925781 545.039062 C 692.257812 541.308594 690.792969 536.492188 692.679688 530.804688 C 693.84375 527.292969 694.925781 523.722656 696.515625 520.398438 C 700.035156 513.011719 703.859375 505.730469 707.707031 498.148438 Z M 738.046875 546.726562 C 736.703125 545.644531 736.015625 544.664062 735.164062 544.496094 C 733.640625 544.203125 732.640625 545.351562 732.835938 546.753906 C 732.957031 547.597656 734.121094 548.992188 734.671875 548.921875 C 735.652344 548.8125 736.535156 547.785156 738.046875 546.726562 Z M 790.554688 532.726562 C 789.289062 531.648438 788.515625 530.492188 787.820312 530.519531 C 787.074219 530.558594 785.894531 531.6875 785.828125 532.421875 C 785.769531 533.097656 786.847656 534.375 787.574219 534.492188 C 788.269531 534.621094 789.171875 533.609375 790.554688 532.726562 Z M 764.875 545.421875 C 765.984375 544.136719 767.101562 543.410156 767.132812 542.632812 C 767.160156 541.898438 766.0625 541.113281 765.464844 540.347656 C 764.6875 540.976562 763.453125 541.507812 763.277344 542.269531 C 763.109375 542.976562 764.082031 543.957031 764.875 545.421875 Z M 764.875 545.421875 " fill-opacity="1" fill-rule="nonzero"/><path fill="#8672a5" d="M 735.171875 477.6875 C 734.75 477.65625 733.777344 477.65625 732.828125 477.5 C 725.617188 476.363281 724.84375 475.324219 723.910156 468.054688 C 722.164062 454.476562 720.164062 440.941406 716.320312 427.757812 C 715.828125 426.058594 715.230469 424.394531 714.574219 422.746094 C 712.355469 417.144531 708.460938 413.210938 702.507812 411.894531 C 694.503906 410.128906 686.480469 408.296875 678.367188 407.175781 C 662.257812 404.949219 646.09375 403.183594 629.949219 401.234375 C 629.625 401.195312 629.300781 401.175781 628.988281 401.136719 C 622.667969 400.210938 620.777344 397.183594 622.816406 391.042969 C 624.472656 386.078125 627.789062 382.792969 633.046875 381.859375 C 635.410156 381.4375 637.855469 381.132812 640.246094 381.191406 C 665.347656 381.839844 689.902344 385.765625 713.789062 393.621094 C 716.691406 394.574219 719.488281 395.828125 722.339844 396.917969 C 732.816406 400.949219 739.15625 408.621094 741.566406 419.429688 C 743.980469 430.269531 746.039062 441.175781 748.199219 452.074219 C 749.011719 456.183594 749.570312 460.335938 750.40625 464.433594 C 751.296875 468.859375 750.25 471.820312 746.628906 474.382812 C 743.65625 476.46875 739.476562 477.746094 735.171875 477.6875 Z M 735.171875 477.6875 " fill-opacity="1" fill-rule="nonzero"/><g clip-path="url(#1ea2eca664)"><path fill="#000000" d="M 183.507812 387.96875 C 182.457031 389.792969 180.769531 390.910156 178.6875 391.355469 C 177.800781 391.542969 176.976562 391.214844 176.457031 390.628906 C 176.027344 391.125 175.582031 391.59375 175.097656 392.027344 C 175.035156 392.609375 174.859375 393.242188 174.492188 393.546875 C 173.414062 394.460938 172.207031 395.398438 170.902344 395.855469 C 166.550781 397.390625 162.160156 398.582031 157.445312 398.761719 C 147.625 399.140625 137.808594 399.292969 128.003906 398.558594 C 117.351562 397.757812 106.757812 396.492188 96.472656 393.421875 C 94.277344 392.761719 92.121094 391.898438 90.03125 390.949219 C 85.121094 388.753906 81.925781 385.039062 80.566406 379.8125 C 79.515625 375.765625 78.375 371.746094 77.472656 367.660156 C 75.761719 359.921875 74.035156 352.171875 72.613281 344.375 C 71.027344 335.710938 69.886719 326.984375 69.378906 318.179688 C 69.292969 316.761719 69.507812 315.277344 68.570312 313.78125 C 66.121094 313.296875 63.558594 313.78125 61.023438 314.058594 C 55.835938 314.605469 50.644531 314.820312 45.507812 313.703125 C 43.835938 313.335938 42.136719 312.878906 40.589844 312.15625 C 36.023438 310 33.800781 305.800781 34.550781 300.816406 C 34.84375 298.863281 35.503906 296.960938 36.046875 294.84375 C 35.386719 294.488281 34.652344 294.070312 33.890625 293.675781 C 31.710938 292.546875 29.527344 291.445312 27.359375 290.300781 C 21.246094 287.082031 17.023438 282.109375 14.117188 275.90625 C 10.617188 268.398438 8.5625 260.445312 7.078125 252.339844 C 5.035156 241.128906 3.5625 229.824219 2.472656 218.472656 C 1.167969 204.964844 0.0625 191.445312 0.078125 177.859375 C 0.078125 174.386719 0.304688 170.949219 1.015625 167.535156 C 1.710938 164.265625 2.816406 161.15625 4.503906 158.265625 C 6.683594 154.523438 9.78125 151.796875 13.761719 150.109375 C 17.59375 148.496094 21.472656 147.585938 25.660156 149.742188 C 26.117188 149.003906 26.585938 148.34375 26.953125 147.621094 C 27.941406 145.707031 28.765625 143.691406 29.894531 141.851562 C 32.34375 137.84375 36.160156 135.929688 40.714844 135.660156 C 42.210938 135.574219 43.808594 136.195312 45.28125 136.703125 C 46.347656 137.070312 47.296875 137.804688 48.273438 138.363281 C 49.429688 138.363281 49.582031 137.324219 50.011719 136.652344 C 51.976562 133.582031 54.3125 130.878906 57.214844 128.648438 C 61.425781 125.425781 66.171875 124.792969 71.179688 125.84375 C 75.683594 126.796875 78.222656 129.828125 78.855469 134.8125 C 80.1875 134.316406 81.46875 133.808594 82.773438 133.390625 C 85.820312 132.414062 88.863281 131.742188 92.109375 132.464844 C 94.734375 133.050781 96.953125 134.230469 98.871094 136.09375 C 101.621094 138.769531 103.421875 142.027344 104.769531 145.566406 C 106.480469 150.03125 107.382812 154.714844 108.257812 159.394531 C 110.234375 169.882812 112.238281 180.359375 114.101562 190.875 C 115.332031 197.824219 116.308594 204.828125 117.464844 212.207031 C 118.796875 211.308594 119.863281 210.570312 120.925781 209.863281 C 123.234375 208.328125 125.757812 207.261719 128.4375 206.628906 C 133.648438 205.410156 138.722656 207.527344 141.4375 212.15625 C 143.390625 215.480469 144.203125 219.082031 143.53125 222.976562 C 142.71875 227.707031 141.375 232.261719 139.179688 236.523438 C 136.25 242.21875 134.347656 248.203125 133.253906 254.535156 C 132.699219 257.78125 131.722656 261.003906 130.515625 264.070312 C 128.691406 268.753906 125.304688 272.328125 121.484375 275.511719 C 120.394531 276.425781 119.339844 277.363281 118.25 278.316406 C 123.210938 282.703125 123.832031 287.816406 120.21875 293.015625 C 117.84375 296.429688 114.585938 298.824219 110.945312 300.652344 C 107.597656 302.328125 104.082031 303.644531 100.632812 305.105469 C 99.3125 305.664062 97.96875 306.15625 96.472656 306.753906 C 96.550781 307.679688 96.574219 308.515625 96.703125 309.339844 C 98.285156 319.308594 99.808594 329.292969 101.519531 339.234375 C 102.597656 345.488281 103.980469 351.679688 105.25 357.894531 C 105.390625 358.605469 105.628906 359.289062 105.871094 359.960938 C 106.570312 362.015625 107.914062 363.425781 110.03125 363.996094 C 113.800781 365.007812 117.617188 365.707031 121.535156 365.785156 C 134.09375 366.0625 146.648438 366.316406 159.207031 366.660156 C 163.101562 366.773438 166.980469 367.089844 170.863281 367.457031 C 173.90625 367.75 176.785156 368.75 179.4375 370.285156 C 186.855469 374.574219 186.730469 382.375 183.507812 387.96875 Z M 183.507812 387.96875 " fill-opacity="1" fill-rule="nonzero"/></g><path fill="#8672a5" d="M 176.457031 390.628906 C 176.027344 391.125 175.582031 391.59375 175.097656 392.027344 C 175.113281 391.875 175.125 391.734375 175.136719 391.59375 C 175.148438 391.125 174.695312 390.644531 174.453125 390.175781 C 172.992188 390.464844 171.75 390.820312 170.484375 390.949219 C 165.320312 391.457031 160.15625 392.0625 154.96875 392.34375 C 139.789062 393.128906 124.667969 392.40625 109.664062 389.945312 C 104.691406 389.132812 99.757812 388.042969 94.988281 386.332031 C 90.308594 384.644531 87.085938 381.664062 86.109375 376.617188 C 86.035156 376.195312 85.921875 375.765625 85.804688 375.347656 C 81.785156 360 78.246094 344.539062 75.660156 328.875 C 74.796875 323.648438 73.984375 318.398438 73.121094 312.980469 C 73.859375 312.703125 74.492188 312.382812 75.164062 312.21875 C 80.058594 311.027344 84.96875 309.847656 89.878906 308.730469 C 90.652344 308.554688 91.488281 308.707031 92.210938 308.707031 C 92.414062 309.148438 92.605469 309.390625 92.640625 309.671875 C 93.605469 317.976562 94.570312 326.296875 95.507812 334.605469 C 96.484375 343.21875 97.730469 351.78125 99.757812 360.203125 C 99.960938 361.039062 100.226562 361.863281 100.507812 362.675781 C 101.609375 365.859375 103.714844 368.140625 106.859375 369.347656 C 108.460938 369.96875 110.132812 370.488281 111.820312 370.832031 C 117.78125 372.0625 123.832031 372.417969 129.894531 372.503906 C 135.816406 372.582031 141.742188 372.570312 147.652344 372.734375 C 154.285156 372.910156 160.933594 373.214844 167.566406 373.507812 C 170.484375 373.632812 173.273438 374.382812 175.859375 375.738281 C 178.5 377.121094 179.425781 379.011719 178.816406 381.789062 C 178.511719 383.171875 177.878906 384.492188 177.320312 385.8125 C 176.925781 386.738281 176.316406 387.574219 176 388.511719 C 175.734375 389.285156 175.960938 390.074219 176.457031 390.628906 Z M 176.457031 390.628906 " fill-opacity="1" fill-rule="nonzero"/><path fill="#ffffff" d="M 47.425781 145.492188 C 47.792969 147.890625 48.238281 150.300781 48.527344 152.722656 C 49.503906 160.890625 50.394531 169.070312 51.382812 177.226562 C 52.078125 182.972656 53.4375 188.578125 54.945312 194.148438 C 55.160156 194.933594 55.695312 195.644531 56.0625 196.328125 C 57.28125 196.164062 57.242188 195.363281 57.179688 194.679688 C 56.835938 190.074219 56.570312 185.457031 56.050781 180.867188 C 55.125 172.839844 54.070312 164.835938 52.96875 156.832031 C 52.472656 153.265625 51.890625 149.691406 51.089844 146.1875 C 50.660156 144.300781 50.988281 142.839844 52.117188 141.355469 C 54.488281 138.238281 57.039062 135.308594 60.363281 133.164062 C 62.757812 131.617188 65.320312 130.996094 68.1875 131.4375 C 70.167969 131.742188 71.753906 132.515625 72.84375 134.214844 C 73.78125 135.6875 74.796875 137.082031 76.8125 137.121094 C 76.292969 143.628906 77.433594 149.867188 78.03125 156.132812 C 78.652344 162.589844 79.183594 169.070312 80.097656 175.5 C 81.859375 187.730469 82.800781 191.355469 84.257812 193.792969 C 85.070312 193.742188 85.082031 193.03125 85.082031 192.546875 C 85.082031 187.207031 85.222656 181.882812 84.460938 176.566406 C 83.105469 167.144531 81.859375 157.707031 80.582031 148.269531 C 80.210938 145.566406 79.453125 142.917969 79.730469 140.113281 C 81.367188 138.3125 83.664062 138.351562 85.730469 137.957031 C 87.554688 137.613281 89.445312 137.578125 91.285156 138.261719 C 92.820312 138.832031 94.0625 139.757812 95.140625 140.964844 C 96.902344 142.941406 98.019531 145.261719 98.957031 147.699219 C 100.621094 152.035156 101.382812 156.601562 102.230469 161.132812 C 104.894531 175.160156 107.507812 189.199219 110.082031 203.242188 C 110.894531 207.65625 111.933594 211.980469 113.683594 216.265625 C 111.984375 219.082031 110.765625 222.128906 109.992188 225.386719 C 109.421875 227.796875 107.9375 229.761719 105.921875 231.105469 C 106.277344 232.679688 107.265625 232.945312 108.269531 232.503906 C 109.421875 231.980469 110.550781 231.273438 111.476562 230.410156 C 113.074219 228.898438 113.964844 226.921875 114.75 224.878906 C 117.148438 218.652344 121.839844 214.808594 128.03125 212.792969 C 132.953125 211.179688 136.71875 213.703125 137.136719 218.878906 C 137.300781 220.859375 137.113281 222.953125 136.617188 224.867188 C 135.894531 227.644531 134.992188 230.421875 133.710938 232.984375 C 130.324219 239.757812 127.992188 246.824219 126.710938 254.28125 C 126.445312 255.839844 126.128906 257.414062 125.621094 258.910156 C 124.515625 262.234375 122.804688 265.1875 120.316406 267.738281 C 116.449219 271.71875 111.84375 274.664062 107.101562 277.453125 C 104.996094 278.695312 102.929688 280.027344 100.875 281.359375 C 100.277344 281.753906 99.65625 282.183594 99.210938 282.71875 C 98.640625 283.402344 98.285156 284.328125 98.90625 285.089844 C 99.300781 285.582031 100.0625 286.039062 100.671875 286.066406 C 103.613281 286.167969 106.367188 285.304688 108.964844 283.949219 C 110.375 283.210938 111.695312 282.324219 113.074219 281.539062 C 113.671875 281.195312 114.304688 280.929688 115.054688 280.5625 C 116.054688 282.601562 116.183594 284.621094 116.070312 286.625 C 115.980469 288.273438 114.953125 289.554688 113.851562 290.734375 C 111.542969 293.207031 108.75 295.035156 105.65625 296.261719 C 100.164062 298.445312 94.660156 300.601562 89.039062 302.414062 C 78.703125 305.75 68.046875 307.566406 57.230469 308.375 C 53.070312 308.695312 48.859375 308.949219 44.75 307.753906 C 43.785156 307.476562 42.808594 307.160156 41.957031 306.664062 C 40.371094 305.75 39.421875 304.28125 39.191406 302.480469 C 38.9375 300.460938 39.078125 298.46875 40.347656 296.503906 C 41.769531 296.988281 43.085938 297.53125 44.445312 297.863281 C 45.394531 298.101562 46.421875 298.140625 47.410156 298.117188 C 48.261719 298.089844 48.921875 296.859375 48.464844 296.136719 C 48.019531 295.425781 47.488281 294.652344 46.789062 294.234375 C 45.445312 293.410156 43.949219 292.839844 42.527344 292.128906 C 38.546875 290.113281 34.539062 288.132812 30.605469 286.015625 C 25.292969 283.160156 21.816406 278.671875 19.433594 273.21875 C 16.285156 266.027344 14.472656 258.453125 13.164062 250.765625 C 11.097656 238.679688 9.703125 226.492188 8.5625 214.277344 C 7.484375 202.773438 6.914062 191.242188 6.582031 179.699219 C 6.46875 175.5 6.683594 171.304688 7.875 167.257812 C 8.484375 165.203125 9.375 163.199219 10.386719 161.308594 C 11.734375 158.824219 13.890625 157.058594 16.550781 156.121094 C 19.214844 155.167969 21.890625 154.003906 25.023438 154.433594 C 25.683594 156.5 25.785156 158.503906 26 160.484375 C 26.625 166.21875 26.914062 172.011719 27.878906 177.695312 C 29.058594 184.660156 30.734375 191.519531 32.28125 198.421875 C 32.519531 199.511719 33.167969 200.527344 33.675781 201.554688 C 33.765625 201.730469 34.257812 201.894531 34.398438 201.820312 C 34.726562 201.628906 35.199219 201.238281 35.171875 200.96875 C 34.980469 198.8125 34.742188 196.671875 34.4375 194.527344 C 33.078125 184.964844 31.710938 175.386719 30.3125 165.824219 C 29.859375 162.679688 29.402344 159.546875 28.84375 156.425781 C 28.550781 154.777344 28.664062 153.34375 29.667969 151.910156 C 30.820312 150.261719 31.695312 148.410156 32.863281 146.773438 C 33.777344 145.492188 34.804688 144.210938 36.058594 143.296875 C 38.304688 141.660156 40.816406 141.292969 43.339844 142.890625 C 44.660156 143.730469 45.992188 144.578125 47.425781 145.492188 Z M 23.960938 231.144531 C 25.011719 231.144531 25.734375 231.308594 26.332031 231.121094 C 31.265625 229.523438 36.210938 227.972656 41.070312 226.1875 C 53.511719 221.621094 66.195312 217.851562 79.109375 214.832031 C 84.015625 213.691406 88.914062 212.527344 93.796875 211.296875 C 94.394531 211.144531 95.230469 210.496094 95.28125 210.015625 C 95.371094 209.175781 94.445312 208.988281 93.707031 209 C 92.414062 209.011719 91.09375 208.921875 89.828125 209.140625 C 81.886719 210.496094 73.945312 211.828125 66.183594 214.097656 C 52.890625 217.96875 40.082031 223.128906 27.246094 228.277344 C 26.445312 228.597656 25.648438 228.976562 24.972656 229.484375 C 24.59375 229.761719 24.429688 230.359375 23.960938 231.144531 Z M 97.207031 237.613281 C 94.925781 235.546875 92.667969 235.570312 90.625 235.953125 C 84.894531 237.019531 79.515625 238.984375 75.40625 243.4375 C 72.347656 246.746094 69.925781 250.460938 68.226562 254.648438 C 66.945312 257.792969 66.628906 261.054688 66.933594 264.390625 C 66.96875 264.832031 67.515625 265.238281 67.808594 265.65625 C 69.34375 264.730469 69.140625 263.335938 69.40625 262.09375 C 71.765625 251.222656 77.648438 243.589844 88.886719 240.859375 C 90.839844 240.390625 92.792969 239.859375 94.695312 239.226562 C 95.445312 238.945312 96.09375 238.335938 97.207031 237.613281 Z M 97.207031 237.613281 " fill-opacity="1" fill-rule="nonzero"/><g clip-path="url(#052cd9bccd)"><path fill="#000000" d="M 274.46875 578.414062 C 264.003906 589.066406 259.75 601.550781 262.882812 616.394531 C 265.835938 630.394531 269.386719 644.207031 274.585938 657.570312 C 275.695312 660.425781 277.375 661.8125 280.316406 662.210938 C 286.769531 663.085938 292.742188 665.304688 297.835938 669.445312 C 304.355469 674.742188 307.480469 681.464844 305.6875 689.914062 C 305.273438 691.882812 304.117188 693.707031 303.402344 695.367188 C 315.238281 713.300781 316.269531 732.496094 310.097656 752.3125 C 306.988281 762.296875 299.824219 769.273438 290.503906 773.910156 C 279.835938 779.21875 268.460938 781.117188 256.660156 780.046875 C 241.371094 778.667969 226.71875 774.867188 213.53125 766.761719 C 208.746094 763.820312 204.066406 760.445312 200.101562 756.5 C 189.441406 745.945312 186.960938 731.964844 193.058594 718.257812 C 199.9375 702.804688 212.207031 693.464844 228.214844 689 C 232.324219 687.851562 235.214844 686.144531 236.636719 682.054688 C 234.308594 676.863281 234.78125 673.640625 239.335938 669.628906 C 241.96875 667.304688 245.191406 665.644531 248.238281 663.628906 C 244.941406 651.820312 241.417969 640.148438 238.457031 628.328125 C 236.539062 620.699219 235.304688 612.882812 233.992188 605.109375 C 231.957031 593.03125 235.410156 582.488281 243.195312 573.148438 C 253.003906 561.410156 264.601562 551.605469 276.640625 542.296875 C 284.648438 536.105469 292.664062 529.890625 301.867188 525.472656 C 303.074219 524.894531 304.28125 524.277344 305.542969 523.851562 C 313.144531 521.34375 320.050781 527.394531 318.738281 535.371094 C 317.910156 540.386719 314.84375 544.003906 311.148438 547.121094 C 308.195312 549.621094 304.917969 551.730469 301.953125 554.222656 C 294.3125 560.636719 286.75 567.136719 279.207031 573.660156 C 277.519531 575.125 276.03125 576.824219 274.46875 578.414062 Z M 274.46875 578.414062 " fill-opacity="1" fill-rule="nonzero"/></g><path fill="#ffffff" d="M 297.226562 764.757812 C 295.78125 760.714844 293.058594 758.6875 289.925781 757.117188 C 286.472656 755.390625 283.730469 752.96875 282.273438 749.332031 C 277.304688 736.90625 267.207031 730.847656 254.964844 727.886719 C 240.964844 724.492188 226.910156 724.703125 213.066406 729.015625 C 209.824219 730.027344 206.632812 731.378906 203.640625 733 C 200.796875 734.542969 198.238281 736.625 195.132812 738.757812 C 194.101562 735.769531 193.925781 732.804688 194.351562 729.765625 C 196 717.832031 202.347656 708.726562 211.726562 701.65625 C 232.640625 685.875 261.601562 687.734375 280.421875 706.015625 C 283.191406 708.707031 285.5625 711.792969 288.128906 714.6875 C 288.96875 715.632812 289.839844 716.542969 290.5625 717.332031 C 292.558594 716.503906 292.546875 715.25 292.019531 714.140625 C 291.257812 712.539062 290.386719 710.9375 289.277344 709.566406 C 277.191406 694.710938 261.640625 686.894531 242.382812 686.675781 C 241.226562 686.664062 240.070312 686.578125 238.535156 686.511719 C 238.960938 685.554688 239.171875 684.878906 239.539062 684.300781 C 241.785156 680.710938 241.804688 680.722656 238.816406 677.847656 C 239.519531 674.433594 241.738281 671.992188 244.671875 670.417969 C 247.527344 668.886719 250.585938 667.542969 253.71875 666.753906 C 263.714844 664.234375 273.785156 664.3125 283.769531 666.925781 C 288.882812 668.269531 293.503906 670.542969 297.34375 674.316406 C 301.761719 678.667969 304.25 686.269531 300.429688 692.722656 C 299.222656 694.769531 299.003906 696.484375 300.710938 698.367188 C 305.609375 703.757812 307.5 710.464844 308.882812 717.398438 C 310.984375 727.984375 310.5 738.441406 307.589844 748.792969 C 305.871094 754.925781 302.667969 760.175781 297.226562 764.757812 Z M 246.359375 678.726562 C 251.335938 677.953125 256.015625 677.027344 260.742188 676.5625 C 265.664062 676.082031 270.667969 676.378906 275.242188 678.328125 C 279.613281 680.191406 283.691406 682.710938 288.167969 685.082031 C 283.972656 673.988281 254.105469 669.464844 246.359375 678.726562 Z M 246.359375 678.726562 " fill-opacity="1" fill-rule="nonzero"/><path fill="#8672a5" d="M 271.652344 660.65625 C 265.113281 661.246094 258.949219 661.792969 252.425781 662.382812 C 252.050781 661.554688 251.480469 660.539062 251.125 659.460938 C 245.519531 642.335938 240.832031 624.992188 238.109375 607.144531 C 236.179688 594.449219 239.105469 583.402344 247.914062 573.757812 C 262.46875 557.808594 279.253906 544.59375 297.113281 532.632812 C 299.582031 530.972656 302.0625 529.3125 304.636719 527.828125 C 309.265625 525.175781 314.824219 528.300781 314.667969 533.632812 C 314.609375 535.59375 313.917969 537.878906 312.71875 539.375 C 310.511719 542.125 307.839844 544.546875 305.128906 546.832031 C 296.03125 554.5 286.742188 561.9375 277.710938 569.683594 C 274.34375 572.578125 271.382812 575.984375 268.449219 579.34375 C 259.316406 589.800781 256.371094 602.011719 258.832031 615.546875 C 261.4375 629.910156 265.160156 643.984375 270.582031 657.578125 C 270.949219 658.484375 271.230469 659.441406 271.652344 660.65625 Z M 271.652344 660.65625 " fill-opacity="1" fill-rule="nonzero"/><path fill="#d6d6d6" d="M 295.222656 766.511719 C 289.25 771.152344 282.5625 773.515625 275.550781 774.933594 C 262.082031 777.65625 248.90625 775.636719 235.921875 771.925781 C 226.128906 769.117188 217.0625 764.6875 208.871094 758.59375 C 204.039062 755.003906 200.035156 750.683594 197.226562 745.269531 C 196.070312 743.050781 196.148438 741.226562 198.230469 739.839844 C 201.800781 737.457031 205.222656 734.589844 209.152344 733.066406 C 226.128906 726.488281 243.425781 726.253906 260.65625 732.09375 C 269.445312 735.074219 276.324219 740.535156 279.890625 749.476562 C 281.6875 753.972656 284.851562 757.164062 289.164062 759.304688 C 292.019531 760.734375 294.457031 762.585938 295.222656 766.511719 Z M 208.070312 752.667969 C 223.957031 747.699219 239.34375 742.90625 254.734375 738.0625 C 255.621094 737.785156 256.410156 737.195312 257.722656 736.492188 C 251.191406 735.496094 212.335938 748.191406 208.070312 752.667969 Z M 218.71875 758.484375 C 223.320312 758.429688 265.027344 743.898438 268.027344 741.496094 C 264.101562 741.316406 223.101562 755.253906 218.71875 758.484375 Z M 229.871094 764.488281 C 230.828125 764.488281 231.511719 764.640625 232.101562 764.457031 C 234.234375 763.8125 236.316406 763.050781 238.429688 762.34375 C 247.988281 759.140625 257.558594 755.957031 267.109375 752.738281 C 268.539062 752.253906 270.320312 752.175781 270.863281 750.191406 C 266.792969 750.121094 232.726562 761.902344 229.871094 764.488281 Z M 278.15625 757.597656 C 274.199219 757.347656 259.921875 761.863281 247.035156 767.265625 C 245.945312 767.71875 244.960938 768.433594 243.050781 769.53125 C 248.191406 769.617188 274.324219 760.570312 278.15625 757.597656 Z M 203.785156 745.597656 C 209.402344 745.058594 214.484375 742.695312 219.703125 740.871094 C 225.019531 739.019531 230.691406 738.101562 236.527344 735.140625 C 231.078125 734.273438 209.460938 741.199219 203.785156 745.597656 Z M 261.523438 772.753906 C 265.730469 772.8125 269.53125 771.125 273.390625 769.832031 C 277.25 768.539062 281.425781 767.796875 285.273438 764.46875 C 280.414062 764.4375 264.101562 770.082031 261.523438 772.753906 Z M 261.523438 772.753906 " fill-opacity="1" fill-rule="nonzero"/><g clip-path="url(#2fdc535580)"><path fill="#000000" d="M 503.289062 760.921875 C 492.050781 767.886719 479.9375 772.65625 467.136719 775.753906 C 451.261719 779.605469 435.148438 781.082031 418.871094 779.984375 C 408.371094 779.277344 398.230469 776.929688 388.765625 772.101562 C 387.277344 771.332031 385.878906 770.371094 384.386719 769.617188 C 378.128906 766.441406 376.25 761.011719 377 754.558594 C 378.550781 741.453125 383.742188 730.09375 393.867188 721.292969 C 402.066406 714.175781 411.785156 710.28125 422.273438 708.054688 C 422.617188 707.976562 422.980469 707.886719 423.339844 707.902344 C 428.953125 707.976562 432.050781 704.847656 433.601562 699.628906 C 432.308594 698.09375 430.9375 696.722656 429.871094 695.160156 C 427.671875 691.910156 427.703125 688.417969 430.140625 685.457031 C 431.929688 683.289062 434.21875 681.363281 436.609375 679.890625 C 440.941406 677.242188 445.789062 675.796875 450.796875 674.894531 C 452.210938 674.636719 453.625 674.382812 455.3125 674.066406 C 455.371094 673 455.492188 671.945312 455.476562 670.90625 C 455.144531 632.316406 456.664062 593.769531 458.109375 555.226562 C 458.726562 538.78125 459.222656 522.324219 459.824219 505.863281 C 459.960938 502.386719 460.183594 498.898438 460.636719 495.453125 C 461.597656 487.914062 467.902344 484.125 475.066406 486.605469 C 478.042969 487.644531 480 489.613281 480.480469 492.746094 C 480.855469 495.226562 481.15625 497.753906 481.113281 500.25 C 480.542969 526.082031 479.789062 551.917969 479.277344 577.75 C 478.75 604.183594 478.417969 630.617188 478.027344 657.050781 C 477.953125 662.691406 478.011719 668.320312 478.011719 674.1875 C 480.40625 674.714844 482.363281 675.148438 484.316406 675.570312 C 488.9375 676.550781 493.40625 677.976562 497.363281 680.566406 C 499.632812 682.054688 501.859375 683.847656 503.558594 685.953125 C 507.035156 690.238281 506.628906 694.917969 502.851562 698.964844 C 501.964844 699.914062 500.941406 700.757812 499.890625 701.71875 C 503.589844 710.730469 504.582031 720.285156 505.800781 729.792969 C 506.417969 734.5625 507.035156 739.316406 507.546875 744.101562 C 507.832031 746.839844 507.9375 749.609375 508.058594 752.359375 C 508.238281 756.152344 506.597656 758.859375 503.289062 760.921875 Z M 503.289062 760.921875 " fill-opacity="1" fill-rule="nonzero"/></g><path fill="#ffffff" d="M 474.464844 727.882812 C 474.523438 725.761719 473.335938 724.378906 472.234375 722.992188 C 463.707031 712.28125 452.558594 706.835938 438.867188 706.535156 C 437.300781 706.503906 435.753906 706.503906 434.1875 706.472656 C 434.066406 706.472656 433.960938 706.414062 433.628906 706.308594 C 433.902344 704.457031 435.046875 702.894531 436.324219 701.929688 C 437.4375 701.085938 439.316406 701.269531 440.777344 700.996094 C 440.941406 699.148438 439.695312 699.054688 438.820312 698.5 C 437.121094 697.417969 435.269531 696.421875 433.871094 695.007812 C 430.816406 691.910156 430.921875 689.019531 433.886719 685.863281 C 434.457031 685.261719 435.074219 684.660156 435.765625 684.191406 C 441.558594 680.265625 448.027344 678.324219 455.386719 677.542969 C 455.492188 680.191406 455.777344 682.65625 455.613281 685.09375 C 455.460938 687.15625 456.304688 688.328125 457.988281 689.035156 C 463.195312 691.234375 468.640625 691.957031 474.207031 691.023438 C 477.652344 690.433594 478.449219 689.140625 478.464844 685.515625 C 478.464844 683.019531 478.464844 680.503906 478.464844 677.796875 C 485.386719 678.699219 491.660156 680.429688 497.257812 684.207031 C 498.054688 684.734375 498.804688 685.351562 499.496094 686.011719 C 504.042969 690.390625 503.621094 695.070312 498.308594 698.558594 C 496.714844 699.613281 494.953125 700.425781 493.328125 701.449219 C 492.699219 701.839844 492.246094 702.5 491.613281 703.132812 C 493.496094 704.652344 495.105469 703.042969 497.242188 703.480469 C 498.25 707.632812 499.632812 711.980469 500.308594 716.433594 C 501.933594 727.234375 503.394531 738.054688 504.597656 748.914062 C 505.378906 756.015625 505.15625 756.078125 499 759.734375 C 486.574219 767.089844 473.09375 771.617188 458.980469 774.3125 C 447.15625 776.566406 435.210938 777.695312 423.160156 777.230469 C 412.777344 776.824219 402.625 775.152344 393.085938 770.820312 C 390.046875 769.4375 387.21875 767.570312 384.285156 765.945312 C 380.550781 763.886719 379.347656 760.710938 379.828125 756.574219 C 381.574219 741.210938 388 728.589844 401.179688 719.910156 C 410.101562 714.042969 420.089844 711.226562 430.605469 710.113281 C 435.992188 709.542969 441.363281 709.585938 446.734375 710.671875 C 455.039062 712.355469 461.945312 716.359375 467.601562 722.617188 C 468.804688 723.957031 469.933594 725.371094 471.167969 726.679688 C 471.921875 727.519531 472.640625 728.664062 474.464844 727.882812 Z M 480.871094 705.042969 C 480.8125 704.59375 480.75 704.140625 480.707031 703.691406 C 470.070312 704.5625 459.554688 703.613281 448.316406 701.734375 C 449.15625 702.710938 449.382812 703.238281 449.714844 703.3125 C 458.890625 705.433594 468.1875 706.21875 477.59375 705.796875 C 478.691406 705.75 479.773438 705.316406 480.871094 705.042969 Z M 480.871094 705.042969 " fill-opacity="1" fill-rule="nonzero"/><g clip-path="url(#14b8750f5f)"><path fill="#8672a5" d="M 458.109375 686.269531 C 458.109375 684.839844 458.09375 683.53125 458.109375 682.222656 C 458.394531 661.082031 458.484375 639.945312 459.042969 618.820312 C 459.6875 594.085938 460.757812 569.367188 461.628906 544.648438 C 462.203125 528.324219 462.742188 512 463.285156 495.679688 C 463.421875 491.8125 465.34375 489.644531 469.394531 488.9375 C 473.035156 488.304688 476.253906 489.796875 477.441406 492.820312 C 477.789062 493.675781 477.9375 494.683594 477.921875 495.601562 C 477.292969 525.375 476.539062 555.152344 475.996094 584.925781 C 475.441406 615.421875 474.328125 645.917969 475.773438 676.414062 C 475.90625 679.289062 475.996094 682.175781 476.269531 685.050781 C 476.449219 687.035156 475.472656 688.074219 473.742188 688.3125 C 468.429688 689.035156 463.253906 688.570312 458.109375 686.269531 Z M 458.109375 686.269531 " fill-opacity="1" fill-rule="nonzero"/></g></svg>